<svg width="48" height="44" xmlns="http://www.w3.org/2000/svg" xmlns:xlink="http://www.w3.org/1999/xlink" overflow="hidden"><defs><clipPath id="clip0"><rect x="188" y="169" width="48" height="44"/></clipPath><linearGradient x1="211.312" y1="211.943" x2="212.052" y2="169.53" gradientUnits="userSpaceOnUse" spreadMethod="reflect" id="fill1"><stop offset="0" stop-color="#9256DC"/><stop offset="0.01" stop-color="#9256DC"/><stop offset="0.6" stop-color="#C968DB"/><stop offset="1" stop-color="#FF79D9"/></linearGradient><linearGradient x1="211.312" y1="211.943" x2="212.052" y2="169.53" gradientUnits="userSpaceOnUse" spreadMethod="reflect" id="fill2"><stop offset="0" stop-color="#9256DC"/><stop offset="0.01" stop-color="#9256DC"/><stop offset="0.6" stop-color="#C968DB"/><stop offset="1" stop-color="#FF79D9"/></linearGradient><linearGradient x1="211.312" y1="211.943" x2="212.052" y2="169.53" gradientUnits="userSpaceOnUse" spreadMethod="reflect" id="fill3"><stop offset="0" stop-color="#9256DC"/><stop offset="0.01" stop-color="#9256DC"/><stop offset="0.6" stop-color="#C968DB"/><stop offset="1" stop-color="#FF79D9"/></linearGradient><linearGradient x1="211.312" y1="211.943" x2="212.052" y2="169.53" gradientUnits="userSpaceOnUse" spreadMethod="reflect" id="fill4"><stop offset="0" stop-color="#9256DC"/><stop offset="0.01" stop-color="#9256DC"/><stop offset="0.6" stop-color="#C968DB"/><stop offset="1" stop-color="#FF79D9"/></linearGradient><linearGradient x1="211.312" y1="211.943" x2="212.052" y2="169.53" gradientUnits="userSpaceOnUse" spreadMethod="reflect" id="fill5"><stop offset="0" stop-color="#9256DC"/><stop offset="0.01" stop-color="#9256DC"/><stop offset="0.6" stop-color="#C968DB"/><stop offset="1" stop-color="#FF79D9"/></linearGradient><linearGradient x1="211.312" y1="211.943" x2="212.052" y2="169.53" gradientUnits="userSpaceOnUse" spreadMethod="reflect" id="fill6"><stop offset="0" stop-color="#9256DC"/><stop offset="0.01" stop-color="#9256DC"/><stop offset="0.6" stop-color="#C968DB"/><stop offset="1" stop-color="#FF79D9"/></linearGradient><linearGradient x1="211.312" y1="211.943" x2="212.052" y2="169.53" gradientUnits="userSpaceOnUse" spreadMethod="reflect" id="fill7"><stop offset="0" stop-color="#9256DC"/><stop offset="0.01" stop-color="#9256DC"/><stop offset="0.6" stop-color="#C968DB"/><stop offset="1" stop-color="#FF79D9"/></linearGradient></defs><g clip-path="url(#clip0)" transform="translate(-188 -169)"><path d="M208.919 209.349C208.943 207.94 210.105 206.818 211.512 206.843 212.92 206.867 214.042 208.029 214.017 209.438 213.992 210.847 212.831 211.969 211.423 211.945 210.015 211.92 208.894 210.758 208.919 209.349Z" fill="url(#fill1)" fill-rule="evenodd"/><path d="M188.317 182.37C188.445 175.052 194.329 169.22 201.459 169.345 208.59 169.469 214.266 175.503 214.139 182.821 214.011 190.139 208.127 195.97 200.997 195.846 193.866 195.721 188.189 189.688 188.317 182.37Z" fill="url(#fill2)" fill-rule="evenodd"/><path d="M209.504 182.74C209.631 175.422 215.515 169.59 222.646 169.715 229.776 169.839 235.453 175.872 235.325 183.191 235.198 190.509 229.314 196.34 222.183 196.216 215.053 196.091 209.376 190.058 209.504 182.74Z" fill="url(#fill3)" fill-rule="evenodd"/><path d="M199.623 189.257C199.751 181.939 205.634 176.108 212.765 176.232 219.895 176.357 225.572 182.39 225.444 189.708 225.317 197.026 219.433 202.858 212.302 202.733 205.172 202.609 199.495 196.576 199.623 189.257Z" fill="url(#fill4)" fill-rule="evenodd"/><path d="M191.935 191.805 231.38 192.494" fill="url(#fill5)" fill-rule="evenodd"/><path d="M209.634 211.166 213.239 211.229" fill="url(#fill6)" fill-rule="evenodd"/><path d="M191.667 191.43 231.613 192.445 213.296 211.142 209.667 211.098 191.667 191.43Z" fill="url(#fill7)" fill-rule="evenodd"/></g></svg>